<?xml version="1.0" standalone="no"?>
<!DOCTYPE svg PUBLIC "-//W3C//DTD SVG 20010904//EN"
 "http://www.w3.org/TR/2001/REC-SVG-20010904/DTD/svg10.dtd">
<svg version="1.0" xmlns="http://www.w3.org/2000/svg"
 width="315.000000pt" height="330.000000pt" viewBox="0 0 315.000000 330.000000"
 preserveAspectRatio="xMidYMid meet">

<g transform="translate(0.000000,330.000000) scale(0.100000,-0.100000)"
fill="#000000" stroke="none">
<path d="M1474 3092 c-45 -26 -88 -52 -95 -58 -8 -6 -24 -15 -36 -18 -13 -4
-23 -11 -23 -16 0 -5 -9 -12 -21 -15 -11 -4 -53 -26 -92 -49 -40 -24 -92 -54
-117 -68 -43 -24 -122 -70 -425 -246 -71 -42 -154 -89 -183 -106 -30 -17 -61
-36 -70 -41 -9 -6 -45 -26 -79 -45 l-63 -35 0 -756 0 -756 23 -11 c26 -13 87
-48 336 -192 100 -58 189 -109 199 -115 75 -43 199 -116 258 -152 39 -23 73
-43 76 -43 4 0 62 -33 130 -73 67 -41 158 -93 201 -116 l77 -43 117 69 c64 37
137 80 162 95 25 15 53 31 61 35 22 10 253 144 265 153 6 4 30 19 55 32 49 28
214 122 467 269 l163 94 2 741 c2 407 2 747 0 755 -1 8 -15 21 -30 30 -153 89
-233 136 -264 153 -20 12 -114 66 -209 121 -95 55 -177 102 -183 104 -6 2 -18
9 -26 16 -8 7 -37 25 -65 40 -27 15 -151 86 -274 157 -123 72 -231 132 -240
134 -9 1 -53 -18 -97 -44z m119 -173 c35 -16 49 -51 36 -88 -6 -17 -19 -33
-30 -36 -18 -6 -19 -21 -19 -416 l0 -409 40 -25 c22 -14 42 -25 45 -25 3 0 5
112 5 250 l0 250 74 42 c64 37 75 47 79 77 7 39 31 60 70 61 31 0 67 -31 67
-60 0 -59 -48 -92 -101 -70 -25 11 -35 8 -98 -30 l-71 -42 0 -249 c0 -309 -9
-297 152 -203 62 37 145 84 183 107 152 88 135 68 135 157 0 74 -2 80 -30 108
-16 17 -30 40 -30 52 0 25 42 70 65 70 20 0 57 -19 67 -34 16 -23 8 -67 -17
-92 -23 -23 -25 -33 -25 -108 0 -67 -3 -86 -17 -98 -10 -8 -87 -54 -172 -102
-84 -48 -174 -100 -198 -115 l-45 -28 37 -22 c20 -11 40 -21 44 -21 13 0 232
125 607 347 75 44 93 59 97 82 7 36 43 71 71 71 62 -1 94 -84 47 -122 -26 -20
-71 -24 -88 -7 -9 9 -60 -17 -200 -99 -103 -60 -210 -122 -238 -137 -27 -15
-57 -34 -66 -41 -8 -8 -18 -14 -21 -14 -6 0 -179 -98 -186 -105 -2 -2 -6 -27
-8 -55 l-3 -51 32 20 c30 18 94 55 207 119 25 14 78 45 119 69 41 24 79 42 85
40 6 -3 42 -23 80 -45 64 -37 72 -39 96 -27 21 11 31 11 57 0 60 -25 53 -107
-11 -128 -38 -13 -80 17 -84 61 -3 27 -13 37 -74 72 l-70 40 -92 -52 c-50 -28
-111 -64 -136 -78 -25 -15 -79 -47 -120 -70 -75 -43 -90 -55 -90 -76 0 -9 203
-132 392 -238 l47 -26 70 41 c60 34 70 44 73 71 2 20 13 38 30 51 68 51 143
-46 82 -107 -17 -18 -74 -22 -90 -6 -6 6 -37 -7 -87 -37 l-78 -46 -210 122
c-116 66 -215 118 -220 115 -11 -6 -12 -64 -1 -80 6 -9 258 -159 442 -262 25
-14 93 -54 152 -88 101 -61 108 -63 133 -50 33 17 62 9 89 -27 17 -23 17 -29
6 -57 -16 -39 -49 -53 -88 -39 -31 11 -58 49 -49 71 3 9 -50 46 -167 113 -94
54 -196 113 -226 131 -30 18 -109 64 -175 103 -66 39 -126 71 -133 71 -7 0
-29 -11 -48 -23 l-34 -24 188 -108 c103 -60 196 -113 207 -119 32 -17 35 -26
35 -115 0 -77 2 -85 25 -103 18 -14 25 -29 25 -54 0 -36 -28 -74 -54 -74 -31
0 -67 21 -78 45 -10 22 -9 32 7 61 10 19 24 34 32 34 11 0 13 18 11 86 l-3 86
-213 124 c-187 109 -215 122 -232 111 -19 -11 -20 -24 -20 -259 l0 -247 33
-18 c17 -9 36 -16 42 -14 5 1 7 -1 3 -5 -4 -4 9 -16 29 -27 29 -15 41 -17 55
-8 69 43 143 -47 88 -107 -41 -44 -106 -23 -116 37 -6 40 -16 48 -129 106 -19
10 -20 22 -23 263 -1 139 -6 252 -11 252 -4 0 -20 -9 -34 -20 -14 -11 -30 -20
-36 -20 -8 0 -11 -120 -11 -410 l0 -410 24 -15 c49 -33 39 -105 -18 -125 -25
-9 -35 -7 -56 8 -40 30 -40 104 0 117 20 6 20 15 20 418 l0 412 -40 23 -40 23
0 -243 c0 -134 -4 -247 -8 -253 -7 -10 -38 -29 -109 -67 -35 -18 -43 -27 -43
-50 0 -61 -78 -91 -120 -46 -54 58 21 149 88 107 14 -9 31 -3 87 29 l70 40 3
250 c2 233 1 252 -16 261 -13 7 -30 2 -67 -20 -28 -16 -61 -34 -75 -41 -14 -6
-32 -17 -40 -24 -8 -6 -46 -29 -85 -49 -38 -21 -77 -43 -85 -50 -8 -7 -24 -15
-36 -19 -50 -15 -64 -42 -64 -121 0 -67 2 -75 25 -92 14 -10 28 -32 31 -50 5
-26 1 -37 -19 -57 -33 -33 -61 -33 -92 -1 -33 32 -32 69 2 103 24 24 27 35 29
107 1 44 2 83 3 87 1 8 83 57 248 149 104 58 172 102 169 108 -3 3 -20 15 -40
25 l-35 19 -188 -108 c-103 -59 -263 -150 -354 -203 -143 -82 -165 -98 -162
-116 11 -56 -72 -92 -117 -51 -56 51 7 144 75 109 25 -13 31 -11 118 40 51 30
110 64 132 76 22 12 94 54 160 92 66 39 152 88 190 111 149 86 135 73 135 129
l0 50 -24 -16 c-14 -8 -40 -24 -58 -34 -18 -11 -98 -57 -178 -104 -80 -46
-153 -87 -163 -91 -11 -4 -39 7 -80 31 -75 46 -95 54 -102 42 -4 -6 -21 -10
-40 -10 -55 0 -92 61 -62 101 44 57 127 38 127 -29 0 -29 2 -31 93 -81 54 -30
60 -31 76 -17 10 9 21 16 25 16 3 0 61 32 129 72 67 39 152 89 190 110 44 26
67 46 67 58 0 13 -60 53 -215 145 l-216 126 -57 -33 c-31 -18 -65 -36 -74 -40
-11 -5 -18 -18 -18 -35 0 -37 -9 -49 -45 -63 -37 -14 -69 1 -86 41 -9 24 -9
33 5 54 25 38 63 49 93 29 23 -14 26 -14 42 0 10 9 21 16 26 16 4 0 30 14 57
30 54 34 66 33 124 -6 20 -14 60 -38 88 -53 28 -15 102 -58 164 -94 l113 -66
-3 51 -3 51 -350 202 c-270 157 -353 201 -367 194 -48 -26 -108 4 -108 54 0
18 4 37 8 43 9 14 47 34 65 34 24 0 67 -47 67 -74 0 -18 11 -30 42 -49 24 -13
84 -48 133 -76 50 -29 115 -67 145 -83 30 -17 62 -37 71 -44 8 -8 18 -14 21
-14 3 0 68 -36 144 -81 l138 -80 39 17 c21 10 40 21 42 25 3 4 -35 30 -83 58
-48 28 -143 83 -212 124 l-125 73 0 86 c0 81 -2 88 -28 112 -34 31 -35 69 -2
101 31 32 59 32 92 -1 20 -20 24 -31 19 -57 -3 -18 -17 -40 -31 -50 -22 -17
-25 -26 -25 -83 0 -36 4 -73 10 -83 8 -16 133 -94 305 -191 125 -71 120 -69
138 -55 15 11 17 37 17 258 l0 246 -69 41 c-60 34 -73 39 -96 30 -39 -15 -53
-12 -80 15 -46 45 -19 115 43 115 39 0 62 -20 71 -60 5 -28 18 -40 81 -79 l75
-47 3 -247 2 -247 40 22 40 23 0 413 c0 247 -4 412 -9 412 -20 0 -41 33 -41
64 0 32 18 57 50 69 8 3 16 6 17 6 1 1 13 -4 26 -10z"/>
<path d="M1542 2887 c-26 -35 -14 -77 23 -77 33 0 60 59 35 75 -20 12 -49 13
-58 2z"/>
<path d="M1207 2564 c-12 -12 -8 -51 7 -64 8 -6 25 -10 38 -8 19 2 23 9 23 38
0 32 -3 35 -30 38 -17 2 -34 0 -38 -4z"/>
<path d="M1857 2563 c-4 -3 -7 -16 -7 -28 0 -48 65 -65 76 -20 9 37 -2 55 -34
55 -16 0 -32 -3 -35 -7z"/>
<path d="M932 2401 c-8 -5 -12 -21 -10 -37 2 -24 8 -29 35 -32 28 -3 33 1 39
23 10 42 -27 70 -64 46z"/>
<path d="M2141 2392 c-17 -32 -2 -62 30 -62 35 0 55 30 39 60 -14 25 -56 26
-69 2z"/>
<path d="M486 2274 c-9 -8 -16 -20 -16 -25 0 -12 37 -49 49 -49 16 0 41 30 41
49 0 38 -45 54 -74 25z"/>
<path d="M2581 2268 c-9 -23 0 -51 19 -63 16 -10 60 23 60 45 0 39 -65 54 -79
18z"/>
<path d="M1430 1866 l-125 -73 0 -153 0 -153 32 -17 c17 -9 43 -24 56 -33 14
-9 43 -26 64 -38 21 -11 55 -31 76 -42 31 -17 41 -19 55 -9 9 7 26 16 37 22
11 5 61 34 110 63 l90 53 3 157 c1 92 -1 157 -7 157 -5 0 -62 31 -128 70 -65
38 -122 69 -128 69 -5 0 -66 -33 -135 -73z"/>
<path d="M606 1834 c-19 -18 -20 -28 -6 -55 13 -24 42 -24 64 0 19 21 13 47
-15 61 -23 13 -25 13 -43 -6z"/>
<path d="M2483 1839 c-40 -15 -25 -79 18 -79 25 0 42 26 35 54 -7 29 -23 36
-53 25z"/>
<path d="M606 1504 c-9 -8 -16 -22 -16 -29 0 -14 26 -45 38 -45 15 0 52 32 52
45 0 17 -27 45 -45 45 -7 0 -21 -7 -29 -16z"/>
<path d="M2473 1513 c-7 -2 -13 -18 -13 -33 0 -53 64 -64 76 -14 10 40 -22 64
-63 47z"/>
<path d="M490 1060 c-24 -24 -15 -58 17 -66 33 -9 58 16 49 49 -8 32 -42 41
-66 17z"/>
<path d="M2585 1056 c-21 -31 -6 -66 28 -66 57 0 65 67 10 84 -17 5 -26 1 -38
-18z"/>
<path d="M938 949 c-11 -6 -18 -22 -18 -39 0 -23 5 -31 25 -36 15 -4 32 -1 40
6 21 18 19 57 -4 70 -23 12 -22 12 -43 -1z"/>
<path d="M2152 944 c-42 -29 -17 -82 32 -70 25 6 42 38 31 56 -14 23 -42 29
-63 14z"/>
<path d="M1210 775 c-7 -9 -10 -25 -6 -40 6 -22 11 -26 39 -23 27 3 33 8 35
32 5 43 -41 64 -68 31z"/>
<path d="M1862 778 c-22 -22 -15 -57 13 -64 40 -10 57 2 53 38 -2 27 -8 34
-28 36 -14 2 -31 -3 -38 -10z"/>
<path d="M1542 458 c-17 -17 -15 -53 3 -68 24 -20 65 3 65 34 0 37 -44 58 -68
34z"/>
</g>
</svg>
